<?xml version="1.0" encoding="iso-8859-1"?>
<!-- Generator: Adobe Illustrator 19.0.0, SVG Export Plug-In . SVG Version: 6.00 Build 0)  -->
<svg version="1.1" id="Capa_1" xmlns="http://www.w3.org/2000/svg" xmlns:xlink="http://www.w3.org/1999/xlink" x="0px" y="0px"
	 viewBox="0 0 54.501 54.501" style="enable-background:new 0 0 54.501 54.501;" xml:space="preserve">
<g>
	<path d="M47.001,25.5H14.567L8.472,0.761c-0.133-0.537-0.674-0.862-1.21-0.732C6.725,0.161,6.397,0.703,6.529,1.239L12.507,25.5
		h-1.506c-0.552,0-1,0.448-1,1s0.448,1,1,1h1.999l1.981,8.04l-2.966,17.796c-0.091,0.545,0.277,1.06,0.822,1.151
		c0.548,0.093,1.061-0.278,1.151-0.822L16.848,36.5h25.306l2.861,17.165C45.096,54.153,45.519,54.5,46,54.5
		c0.054,0,0.11-0.004,0.166-0.014c0.544-0.091,0.913-0.606,0.822-1.151l-2.968-17.808l1.784-8.027h1.198c0.552,0,1-0.448,1-1
		S47.553,25.5,47.001,25.5z M42.198,34.5H16.784l-1.725-7h28.694L42.198,34.5z"/>
</g>
<g>
</g>
<g>
</g>
<g>
</g>
<g>
</g>
<g>
</g>
<g>
</g>
<g>
</g>
<g>
</g>
<g>
</g>
<g>
</g>
<g>
</g>
<g>
</g>
<g>
</g>
<g>
</g>
<g>
</g>
</svg>
