<?xml version="1.0" encoding="iso-8859-1"?>
<!-- Generator: Adobe Illustrator 19.0.0, SVG Export Plug-In . SVG Version: 6.00 Build 0)  -->
<svg version="1.1" id="Layer_1" xmlns="http://www.w3.org/2000/svg" xmlns:xlink="http://www.w3.org/1999/xlink" x="0px" y="0px"
	 viewBox="0 0 503.467 503.467" style="enable-background:new 0 0 503.467 503.467;" xml:space="preserve">
<g transform="translate(5 1)">
	<path style="fill:#AE938D;" d="M460.067,344.6v51.2h-153.6v-51.2H187v51.2H33.4v-51.2c0-18.773,15.36-34.133,34.133-34.133h358.4
		C444.707,310.467,460.067,325.827,460.067,344.6"/>
	<path style="fill:#FFD0A1;" d="M460.067,395.8V447c0,18.773-15.36,34.133-34.133,34.133h-179.2V395.8h59.733H460.067z
		 M246.733,395.8v85.333h-179.2C48.76,481.133,33.4,465.773,33.4,447v-51.2H187H246.733z"/>
	<g>
		<path style="fill:#ECF4F7;" d="M425.933,20.333v204.8c0,9.387-7.68,17.067-17.067,17.067h-34.133V3.267h34.133
			C418.253,3.267,425.933,10.947,425.933,20.333z M118.733,3.267V242.2H84.6c-9.387,0-17.067-7.68-17.067-17.067v-204.8
			c0-9.387,7.68-17.067,17.067-17.067H118.733z M374.733,3.267V242.2h-102.4h-51.2h-102.4V3.267H374.733z"/>
		<polygon style="fill:#ECF4F7;" points="306.467,344.6 306.467,395.8 246.733,395.8 187,395.8 187,344.6 		"/>
	</g>
</g>
<path style="fill:#51565F;" d="M430.933,503.467c-2.56,0-4.267-1.707-4.267-4.267v-17.067c0-2.56,1.707-4.267,4.267-4.267
	c16.213,0,29.867-13.653,29.867-29.867v-46.933H256v76.8h140.8c2.56,0,4.267,1.707,4.267,4.267s-1.707,4.267-4.267,4.267H106.667
	c-2.56,0-4.267-1.707-4.267-4.267s1.707-4.267,4.267-4.267h140.8v-76.8h-204.8V448c0,16.213,13.653,29.867,29.867,29.867
	c2.56,0,4.267,1.707,4.267,4.267V499.2c0,2.56-1.707,4.267-4.267,4.267c-2.56,0-4.267-1.707-4.267-4.267v-12.8
	c-18.773-2.56-34.133-18.773-34.133-38.4V345.6c0-21.333,17.067-38.4,38.4-38.4h358.4c21.333,0,38.4,17.067,38.4,38.4V448
	c0,19.627-15.36,35.84-34.133,38.4v12.8C435.2,501.76,433.493,503.467,430.933,503.467z M251.733,392.533H460.8V345.6
	c0-16.213-13.653-29.867-29.867-29.867h-358.4c-16.213,0-29.867,13.653-29.867,29.867v46.933H251.733z M294.4,452.267
	c-6.827,0-12.8-5.973-12.8-12.8c0-6.827,5.973-12.8,12.8-12.8s12.8,5.973,12.8,12.8C307.2,446.293,301.227,452.267,294.4,452.267z
	 M294.4,435.2c-2.56,0-4.267,1.707-4.267,4.267c0,2.56,1.707,4.267,4.267,4.267s4.267-1.707,4.267-4.267
	C298.667,436.907,296.96,435.2,294.4,435.2z M209.067,452.267c-6.827,0-12.8-5.973-12.8-12.8c0-6.827,5.973-12.8,12.8-12.8
	s12.8,5.973,12.8,12.8C221.867,446.293,215.893,452.267,209.067,452.267z M209.067,435.2c-2.56,0-4.267,1.707-4.267,4.267
	c0,2.56,1.707,4.267,4.267,4.267s4.267-1.707,4.267-4.267C213.333,436.907,211.627,435.2,209.067,435.2z M311.467,366.933
	c-2.56,0-4.267-1.707-4.267-4.267v-12.8H196.267v12.8c0,2.56-1.707,4.267-4.267,4.267s-4.267-1.707-4.267-4.267V345.6
	c0-2.56,1.707-4.267,4.267-4.267h119.467c2.56,0,4.267,1.707,4.267,4.267v17.067C315.733,365.227,314.027,366.933,311.467,366.933z
	 M277.333,281.6c-2.56,0-4.267-1.707-4.267-4.267v-29.867H230.4v29.867c0,2.56-1.707,4.267-4.267,4.267s-4.267-1.707-4.267-4.267
	v-29.867H89.6c-11.947,0-21.333-9.387-21.333-21.333v-204.8C68.267,9.387,77.653,0,89.6,0h324.267
	C425.813,0,435.2,9.387,435.2,21.333v204.8c0,11.947-9.387,21.333-21.333,21.333H281.6v29.867
	C281.6,279.893,279.893,281.6,277.333,281.6z M384,238.933h29.867c6.827,0,12.8-5.973,12.8-12.8v-204.8
	c0-6.827-5.973-12.8-12.8-12.8H128v200.533c0,2.56-1.707,4.267-4.267,4.267c-2.56,0-4.267-1.707-4.267-4.267V8.533H89.6
	c-6.827,0-12.8,5.973-12.8,12.8v204.8c0,6.827,5.973,12.8,12.8,12.8h285.867V38.4c0-2.56,1.707-4.267,4.267-4.267
	c2.56,0,4.267,1.707,4.267,4.267V238.933z M337.067,102.4c-0.853,0-2.56,0-3.413-0.853l-51.2-51.2
	c-0.853-0.853-0.853-1.707-0.853-3.413c0-1.707,0-2.56,0.853-3.413c1.707-1.707,4.267-1.707,5.973,0l51.2,51.2
	c0.853,0.853,0.853,1.707,0.853,3.413s0,2.56-0.853,3.413S337.92,102.4,337.067,102.4z M345.6,59.733c-0.853,0-2.56,0-3.413-0.853
	L325.12,41.813c-0.853-0.853-0.853-1.707-0.853-3.413c0-1.707,0-2.56,0.853-3.413c1.707-1.707,4.267-1.707,5.973,0l17.067,17.067
	c0.853,0.853,0.853,1.707,0.853,3.413c0,1.707,0,2.56-0.853,3.413C347.307,59.733,346.453,59.733,345.6,59.733z"/>
<g>
</g>
<g>
</g>
<g>
</g>
<g>
</g>
<g>
</g>
<g>
</g>
<g>
</g>
<g>
</g>
<g>
</g>
<g>
</g>
<g>
</g>
<g>
</g>
<g>
</g>
<g>
</g>
<g>
</g>
</svg>
