<?xml version="1.0" encoding="iso-8859-1"?>
<!-- Generator: Adobe Illustrator 19.0.0, SVG Export Plug-In . SVG Version: 6.00 Build 0)  -->
<svg version="1.1" id="Layer_1" xmlns="http://www.w3.org/2000/svg" xmlns:xlink="http://www.w3.org/1999/xlink" x="0px" y="0px"
	 viewBox="0 0 512 512" style="enable-background:new 0 0 512 512;" xml:space="preserve">
<g>
	<g>
		<path d="M430.933,42.667h-51.2V8.533c0-4.71-3.814-8.533-8.533-8.533c-153.66,0-256,44.988-256,264.533v168.772
			c-24.508,6.904-42.667,19.063-42.667,36.028C72.533,497.05,120.892,512,166.4,512c45.508,0,93.867-14.95,93.867-42.667
			c0-27.716-48.358-42.667-93.867-42.667c-11.469,0-23.117,0.956-34.133,2.825V264.533c0-222.976,112.538-246.451,230.4-247.432
			v25.566h-51.2c-4.719,0-8.533,3.823-8.533,8.533v51.2c0,4.71,3.814,8.533,8.533,8.533h119.467c4.719,0,8.533-3.823,8.533-8.533
			V51.2C439.467,46.49,435.652,42.667,430.933,42.667z M166.4,443.733c46.882,0,76.8,15.164,76.8,25.6
			c0,10.436-29.918,25.6-76.8,25.6c-46.882,0-76.8-15.164-76.8-25.6c0-5.811,9.293-13.082,25.6-18.389v9.856
			c0,4.71,3.814,8.533,8.533,8.533s8.533-3.823,8.533-8.533v-14.08C142.242,444.877,153.668,443.733,166.4,443.733z"/>
	</g>
</g>
<g>
	<g>
		<path d="M418.133,128h-93.867c-2.355,0-4.267,1.911-4.267,4.267v12.8c0,7.066,3.814,8.533,8.533,8.533h85.333
			c4.719,0,8.533-1.468,8.533-8.533v-12.8C422.4,129.911,420.489,128,418.133,128z"/>
	</g>
</g>
<g>
</g>
<g>
</g>
<g>
</g>
<g>
</g>
<g>
</g>
<g>
</g>
<g>
</g>
<g>
</g>
<g>
</g>
<g>
</g>
<g>
</g>
<g>
</g>
<g>
</g>
<g>
</g>
<g>
</g>
</svg>
