<?xml version="1.0" encoding="iso-8859-1"?>
<!-- Generator: Adobe Illustrator 17.1.0, SVG Export Plug-In . SVG Version: 6.00 Build 0)  -->
<!DOCTYPE svg PUBLIC "-//W3C//DTD SVG 1.1//EN" "http://www.w3.org/Graphics/SVG/1.1/DTD/svg11.dtd">
<svg version="1.1" id="Capa_1" xmlns="http://www.w3.org/2000/svg" xmlns:xlink="http://www.w3.org/1999/xlink" x="0px" y="0px"
	 viewBox="0 0 475.8 475.8" style="enable-background:new 0 0 475.8 475.8;" xml:space="preserve">
<path d="M380.188,53.562h-85.414L243.408,2.197c-2.93-2.929-7.678-2.929-10.607,0l-51.366,51.366H95.612
	c-12.252,0-22.219,9.967-22.219,22.219V453.58c0,12.252,9.967,22.219,22.219,22.219h284.576c12.252,0,22.219-9.967,22.219-22.219
	V75.781C402.407,63.53,392.44,53.562,380.188,53.562z M238.104,18.106l35.457,35.456h-70.912L238.104,18.106z M387.407,453.58
	c0,3.981-3.238,7.219-7.219,7.219H95.612c-3.98,0-7.219-3.238-7.219-7.219V75.781c0-3.981,3.238-7.219,7.219-7.219h284.576
	c3.98,0,7.219,3.238,7.219,7.219V453.58z M357.974,79.432H117.826c-10.235,0-18.563,8.327-18.563,18.563v218.914
	c0,0.003,0,0.007,0,0.01v115.429c0,10.235,8.327,18.563,18.563,18.563h240.148c10.235,0,18.563-8.327,18.563-18.563V97.995
	C376.536,87.76,368.209,79.432,357.974,79.432z M117.826,94.432h200.812L114.263,298.807V97.995
	C114.263,96.064,115.895,94.432,117.826,94.432z M357.974,435.911H117.826c-1.931,0-3.563-1.631-3.563-3.563v-22.761l19.035-19.035
	c2.929-2.929,2.929-7.678,0-10.606c-2.93-2.929-7.678-2.929-10.607,0l-8.428,8.428v-68.352L339.851,94.432h18.123
	c1.931,0,3.563,1.631,3.563,3.563V141.1L167.029,335.608c-2.929,2.929-2.929,7.678,0,10.606c1.465,1.464,3.385,2.197,5.304,2.197
	s3.839-0.732,5.304-2.197l183.9-183.9v270.035C361.536,434.28,359.905,435.911,357.974,435.911z"/>
<g>
</g>
<g>
</g>
<g>
</g>
<g>
</g>
<g>
</g>
<g>
</g>
<g>
</g>
<g>
</g>
<g>
</g>
<g>
</g>
<g>
</g>
<g>
</g>
<g>
</g>
<g>
</g>
<g>
</g>
</svg>
